<svg xmlns="http://www.w3.org/2000/svg" width="40" height="40" fill="none"><rect width="40" height="40" fill="url(#a)" rx="20"/><path fill="#fff" d="m13.421 19.742 6.93-10.092c.852-1.241 1.278-1.862 1.595-1.915a.756.756 0 0 1 .72.281c.197.253.09.999-.122 2.49l-.901 6.307c-.046.317-.068.476-.02.6.042.108.12.198.221.255.116.065.276.065.596.065h2.81c.992 0 1.488 0 1.76.207.235.18.38.454.394.75.017.34-.264.75-.825 1.567l-6.93 10.092c-.852 1.242-1.278 1.863-1.595 1.915a.756.756 0 0 1-.72-.28c-.197-.254-.09-.999.122-2.49l.901-6.307c.046-.318.068-.476.02-.6a.503.503 0 0 0-.221-.255c-.116-.065-.276-.065-.597-.065H14.75c-.992 0-1.489 0-1.76-.207a1.008 1.008 0 0 1-.394-.75c-.017-.34.264-.75.825-1.568Z"/><defs><linearGradient id="a" x1="0" x2="40" y1="20" y2="20" gradientUnits="userSpaceOnUse"><stop stop-color="#DF69D1"/><stop offset=".5" stop-color="#976FFF"/><stop offset="1" stop-color="#6C93FF"/></linearGradient></defs></svg>