<svg xmlns="http://www.w3.org/2000/svg" width="40" height="40" fill="none"><rect width="40" height="40" fill="url(#a)" rx="20"/><path fill="#fff" d="M17.59 27.392a2 2 0 1 1-3.625 1.69l-1.67-3.582h4.413l.882 1.892ZM27 10a2 2 0 0 1 2 2v15a2 2 0 1 1-4 0V12a2 2 0 0 1 2-2Zm-3 16.554C23.976 26.529 21.473 24 16 24h-3.501A4.5 4.5 0 0 1 8 19.5a4.5 4.5 0 0 1 4.499-4.5H16c5.5 0 8-2.5 8-2.5v14.054Z"/><defs><linearGradient id="a" x1="20" x2="20" y1="0" y2="40" gradientUnits="userSpaceOnUse"><stop stop-color="#72D5FD"/><stop offset="1" stop-color="#2A9EF1"/></linearGradient></defs></svg>