<svg xmlns="http://www.w3.org/2000/svg" width="40" height="40" fill="none"><rect width="40" height="40" fill="url(#a)" rx="20"/><path fill="#fff" fill-rule="evenodd" d="m15.881 14.908 2.886-5.633a1.349 1.349 0 0 1 2.396.01l2.726 5.432c.223.444.658.747 1.157.806l5.708.67a1.396 1.396 0 0 1 1.236 1.547 1.383 1.383 0 0 1-.413.828l-4.512 4.36a.798.798 0 0 0-.239.674l.75 5.886c.107.842-.5 1.611-1.355 1.717a1.583 1.583 0 0 1-.94-.175l-4.768-2.552a1.207 1.207 0 0 0-1.11-.014l-4.938 2.483a1.424 1.424 0 0 1-1.901-.607 1.373 1.373 0 0 1-.14-.83l.395-2.7a4.104 4.104 0 0 1 2.235-3.072l5.485-2.745a.29.29 0 0 0 .13-.394.299.299 0 0 0-.307-.157l-6.708.942a3.761 3.761 0 0 1-2.87-.783L8.55 18.814a1.449 1.449 0 0 1-.217-2.06c.24-.292.587-.481.966-.529l5.728-.722c.367-.047.687-.27.854-.595Z" clip-rule="evenodd"/><defs><linearGradient id="a" x1="0" x2="40" y1="20" y2="20" gradientUnits="userSpaceOnUse"><stop stop-color="#6C93FF"/><stop offset=".5" stop-color="#976FFF"/><stop offset="1" stop-color="#DF69D1"/></linearGradient></defs></svg>